<svg width="901" height="782" viewBox="0 0 901 782" fill="none" xmlns="http://www.w3.org/2000/svg">
<path opacity="0.45" d="M417.565 668.572C621.378 668.572 786.601 657.609 786.601 644.086C786.601 630.562 621.378 619.599 417.565 619.599C213.752 619.599 48.5292 630.562 48.5292 644.086C48.5292 657.609 213.752 668.572 417.565 668.572Z" fill="#E6E6E6"/>
<path d="M358.929 466.612L332.364 615.345H461.977L435.412 466.612H358.929Z" fill="#C9C9C9"/>
<path d="M657.133 151.454H151.191V505.105H657.133V151.454Z" fill="#E6E6E6"/>
<path d="M478.882 600.638H314.662V630.649H478.882V600.638Z" fill="#E6E6E6"/>
<path opacity="0.56" d="M657.133 151.454H151.191V464.459H657.133V151.454Z" fill="white"/>
<path d="M190.024 194.694C195.906 194.694 200.674 189.573 200.674 183.255C200.674 176.938 195.906 171.816 190.024 171.816C184.142 171.816 179.374 176.938 179.374 183.255C179.374 189.573 184.142 194.694 190.024 194.694Z" fill="#24285B"/>
<path d="M221.709 194.694C227.591 194.694 232.359 189.573 232.359 183.255C232.359 176.938 227.591 171.816 221.709 171.816C215.827 171.816 211.059 176.938 211.059 183.255C211.059 189.573 215.827 194.694 221.709 194.694Z" fill="#6096B4"/>
<path d="M251.534 194.694C257.416 194.694 262.184 189.573 262.184 183.255C262.184 176.938 257.416 171.816 251.534 171.816C245.652 171.816 240.884 176.938 240.884 183.255C240.884 189.573 245.652 194.694 251.534 194.694Z" fill="#FFD200"/>
<path d="M613.518 395.591H545.898V417.613H613.518V395.591Z" fill="#C9C9C9"/>
<path opacity="0.3" d="M613.518 206.367H545.898V362.156H613.518V206.367Z" fill="#C9C9C9"/>
<path opacity="0.58" d="M126.727 617.421C126.727 617.421 106.634 611.532 102.263 591.482C102.263 591.482 133.392 584.712 134.286 619.21L126.727 617.421Z" fill="#6096B4"/>
<path opacity="0.73" d="M129.19 615.294C129.19 615.294 115.159 591.456 127.5 569.174C127.5 569.174 151.167 585.308 140.661 615.345L129.19 615.294Z" fill="#6096B4"/>
<path d="M132.813 615.294C132.813 615.294 140.227 590.133 162.638 585.36C162.638 585.36 166.84 601.702 148.148 615.371L132.813 615.294Z" fill="#6096B4"/>
<path opacity="0.08" d="M597.797 331.989C597.797 331.989 561.789 355.723 577.945 383.685C594.102 411.647 600.622 435.433 584.973 438.754C569.324 442.074 543.918 459.245 553.578 505.105H631.003L636.63 428.871L605.501 363.453L597.797 331.989Z" fill="black"/>
<path d="M118.226 614.723L122.307 644.656L147.955 644.76L151.722 614.879L118.226 614.723Z" fill="#24285B"/>
<path d="M605.814 353.363L622.599 379.276L611.055 391.078L603.689 366.073L605.814 353.363Z" fill="#F4A28C"/>
<path opacity="0.31" d="M605.066 370.975C606.843 369.381 608.145 367.262 608.809 364.88C610.238 369.736 609.893 374.994 607.843 379.587L605.066 370.975Z" fill="#CE8172"/>
<path d="M588.74 360.703C591.03 366.15 593.986 371.245 597.531 375.852C597.983 376.369 598.526 376.785 599.128 377.076C599.73 377.366 600.381 377.526 601.041 377.545C601.701 377.565 602.358 377.443 602.974 377.188C603.591 376.933 604.154 376.549 604.631 376.059C606.269 374.584 607.474 372.629 608.1 370.434C608.726 368.238 608.746 365.894 608.157 363.686L606.539 353.933C606.034 351.997 604.978 350.278 603.518 349.018C602.059 347.758 600.27 347.018 598.4 346.904C591.518 346.126 585.987 354.867 588.74 360.703Z" fill="#F4A28C"/>
<path d="M591.614 366.747L591.059 371.935C591.028 372.222 591.065 372.513 591.167 372.781C591.27 373.049 591.433 373.284 591.643 373.465C591.853 373.647 592.102 373.768 592.367 373.818C592.633 373.868 592.905 373.845 593.16 373.751L596.855 372.428L591.614 366.747Z" fill="#F4A28C"/>
<path d="M587.05 355.775C587.05 355.775 587.919 367.525 602.144 363.194L612.359 363.531C612.359 363.531 613.18 353.285 608.664 346.281C604.148 339.278 584.78 338.915 587.05 355.775Z" fill="#24285B"/>
<path d="M606.612 348.616C615.161 348.616 622.092 341.172 622.092 331.989C622.092 322.806 615.161 315.362 606.612 315.362C598.062 315.362 591.131 322.806 591.131 331.989C591.131 341.172 598.062 348.616 606.612 348.616Z" fill="#24285B"/>
<path d="M602.192 363.193C602.192 363.193 600.381 359.562 603.061 358.317C605.742 357.072 608.374 362.337 605.187 364.88L602.192 363.193Z" fill="#F4A28C"/>
<path d="M607.602 393.179C607.602 393.179 568.165 429.26 568.793 455.095C569.215 470.811 572.677 486.261 578.96 500.462L591.373 495.56C591.373 495.56 576.883 451.775 609.099 432.917C641.315 414.06 607.602 393.179 607.602 393.179Z" fill="#6096B4"/>
<path opacity="0.08" d="M607.602 393.179C607.602 393.179 568.165 429.26 568.793 455.095C569.215 470.811 572.677 486.261 578.96 500.462L591.373 495.56C591.373 495.56 576.883 451.775 609.099 432.917C641.315 414.06 607.602 393.179 607.602 393.179Z" fill="black"/>
<path d="M594.488 342.313C594.488 342.313 594.488 339.511 601.926 339.511C609.365 339.511 610.934 345.918 609.848 348.356C609.848 348.356 605.597 339.122 594.488 342.313Z" fill="#FFD200"/>
<path d="M607.602 393.179L606.756 382.259L622.116 369.004L627.694 377.486C627.694 377.486 653.559 369.004 664.668 397.822C675.777 426.64 663.122 466.612 663.122 466.612L616.272 473.641C616.272 473.641 619.266 465.03 610.814 453.098C602.361 441.166 587.195 422.645 607.602 393.179Z" fill="#6096B4"/>
<path d="M730.555 393.33L727.707 389.011L507.34 556.66L510.188 560.978L730.555 393.33Z" fill="#24285B"/>
<path d="M526.762 586.157L490.888 531.758L468.757 548.594L504.631 602.994L526.762 586.157Z" fill="#FFD200"/>
<path d="M526.771 586.142L490.897 531.743L481.556 538.85L517.43 593.249L526.771 586.142Z" fill="#24285B"/>
<path d="M627.695 377.486C627.695 377.486 646.483 352.455 672.058 349.472C697.633 346.489 707.824 373.647 701.98 412.711L689.736 417.276C689.736 417.276 690.871 376.941 677.661 372.324C664.451 367.707 646.507 431.646 627.695 377.486Z" fill="#6096B4"/>
<path d="M691.185 414.034C691.185 414.034 686.234 426.277 694.566 427.937C702.898 429.597 707.076 414.034 707.076 414.034C707.076 414.034 705.989 407.757 702.246 406.589C698.502 405.422 691.185 414.034 691.185 414.034Z" fill="#FFD200"/>
<path d="M570.024 477.947L588.958 475.95L592.194 501.448L577.994 505.754L570.024 477.947Z" fill="#FFD200"/>
<path d="M623.927 543.858L596.613 637.912H590.262L596.179 540.979L623.927 543.858Z" fill="#F4A28C"/>
<path opacity="0.08" d="M391.169 359.692C426.127 359.692 454.467 355.163 454.467 349.576C454.467 343.989 426.127 339.459 391.169 339.459C356.211 339.459 327.872 343.989 327.872 349.576C327.872 355.163 356.211 359.692 391.169 359.692Z" fill="black"/>
<path d="M590.721 637.912C590.721 637.912 587.219 642.685 582.727 642.452C578.235 642.218 577.583 649.04 584.804 648.34C587.046 648.125 589.268 647.709 591.445 647.095C593.458 646.601 595.556 646.681 597.531 647.328C597.916 647.428 598.321 647.397 598.689 647.239C599.056 647.081 599.369 646.804 599.584 646.446C601.637 643.852 596.613 637.912 596.613 637.912H590.721Z" fill="#6096B4"/>
<path d="M647.666 535.039L669.667 630.701L664.233 634.255L622.55 548.008L647.666 535.039Z" fill="#F4A28C"/>
<path d="M664.62 633.996C664.62 633.996 663.92 640.013 659.983 642.322C656.047 644.63 658.751 650.804 664.572 646.187C666.401 644.774 668.107 643.185 669.667 641.44C671.155 639.892 672.996 638.792 675.004 638.25C675.378 638.114 675.704 637.861 675.941 637.523C676.178 637.185 676.314 636.779 676.333 636.356C676.84 633.01 669.667 630.701 669.667 630.701L664.62 633.996Z" fill="#6096B4"/>
<path opacity="0.08" d="M570.024 477.947L588.958 475.95L592.194 501.448L577.994 505.754L570.024 477.947Z" fill="black"/>
<path d="M591.373 495.56C591.373 495.56 575.265 492.188 571.57 500.462C567.875 508.737 576.569 515.04 584.08 511.382C591.59 507.725 594.561 501.603 591.373 495.56Z" fill="#FFD200"/>
<path d="M663.123 466.612V525.545C663.126 535.822 663.65 546.092 664.692 556.309L669.16 600.638L581.037 595.45C581.037 595.45 586.905 516.648 616.199 473.538C616.272 473.641 640.76 468.817 663.123 466.612Z" fill="#24285B"/>
<path d="M711.978 591.196H757.621L754.53 643.152H717.532L711.978 591.196Z" fill="#C9C9C9"/>
<path d="M715.697 591.196V575.166C715.694 572.491 716.182 569.842 717.134 567.37C718.085 564.898 719.482 562.652 721.243 560.76C723.004 558.869 725.095 557.369 727.396 556.347C729.698 555.325 732.164 554.801 734.655 554.804C737.151 554.794 739.623 555.313 741.932 556.332C744.24 557.35 746.339 558.849 748.107 560.74C749.875 562.632 751.278 564.88 752.235 567.356C753.192 569.831 753.685 572.486 753.685 575.166V591.222" stroke="#E6E6E6" stroke-width="1.015" stroke-miterlimit="10"/>
<path d="M512.837 644.76C512.837 644.76 517.667 614.049 492.479 611.403C467.29 608.757 494.338 602.947 476.443 584.634C458.548 566.321 446.231 578.253 442.633 589.433C439.035 600.612 440.073 621.337 418.845 607.408C397.617 593.479 380.35 577.604 367.406 596.825C354.461 616.046 327.317 608.601 336.566 644.76H512.837Z" fill="#6096B4"/>
<path opacity="0.44" d="M512.837 644.76C512.837 644.76 517.667 614.049 492.479 611.403C467.29 608.757 494.338 602.947 476.443 584.634C458.548 566.321 446.231 578.253 442.633 589.433C439.035 600.612 440.073 621.337 418.845 607.408C397.617 593.479 380.35 577.604 367.406 596.825C354.461 616.046 327.317 608.601 336.566 644.76H512.837Z" fill="white"/>
<path d="M342.338 251.449L350.356 349.238H430.824L437.9 251.449H342.338Z" fill="#24285B"/>
<path d="M387.668 644.76C387.668 644.76 394.14 625.954 382.717 618.666C371.294 611.377 361.151 622.323 361.151 622.323C361.151 622.323 359.919 603.777 339.247 606.76C318.574 609.743 331.084 624.917 314.662 622.971C298.24 621.026 288.387 631.791 292.396 644.76H387.668Z" fill="#6096B4"/>
<path opacity="0.64" d="M387.668 644.76C387.668 644.76 394.14 625.954 382.717 618.666C371.294 611.377 361.151 622.323 361.151 622.323C361.151 622.323 359.919 603.777 339.247 606.76C318.574 609.743 331.084 624.917 314.662 622.971C298.24 621.026 288.387 631.791 292.396 644.76H387.668Z" fill="white"/>
<path d="M396.265 223.642C396.265 223.642 393.174 207.301 413.17 206.367C433.166 205.433 420.27 236.56 428.892 237.494C437.513 238.427 391.049 254.769 396.265 223.642Z" fill="#6096B4"/>
<path opacity="0.44" d="M396.265 223.642C396.265 223.642 393.174 207.301 413.17 206.367C433.166 205.433 420.27 236.56 428.892 237.494C437.513 238.427 391.049 254.769 396.265 223.642Z" fill="white"/>
<path d="M440.846 244.497H339.102C335.527 244.497 332.63 247.61 332.63 251.449C332.63 255.288 335.527 258.4 339.102 258.4H440.846C444.42 258.4 447.318 255.288 447.318 251.449C447.318 247.61 444.42 244.497 440.846 244.497Z" fill="#FFD200"/>
<path d="M344.198 244.497C344.198 244.497 338.015 225.276 350.042 220.659C362.069 216.042 358.374 232.565 369.169 223.954C379.964 215.342 367.623 211.373 379.94 202.761C392.256 194.15 402.158 195.161 404.09 210.05C406.022 224.939 405.78 229.92 416.865 225.951C427.95 221.982 443.43 230.594 437.827 244.497H344.198Z" fill="#6096B4"/>
<path d="M472.748 391.078H309.567V410.558H472.748V391.078Z" fill="white"/>
<path d="M430.051 391.078H309.567V410.558H430.051V391.078Z" fill="#C9C9C9"/>
<path d="M248.998 260.968H106.296V423.683H248.998V260.968Z" fill="#C9C9C9"/>
<path d="M144.187 318.527L153.847 297.931V297.776H142.545V292.743H159.885V297.802L150.225 318.553L144.187 318.527Z" fill="#8E8E8E"/>
<path d="M172.491 319.149C170.586 319.245 168.701 318.696 167.102 317.579C165.503 316.462 164.271 314.833 163.58 312.924C162.706 310.63 162.286 308.165 162.348 305.687C162.284 303.217 162.703 300.76 163.58 298.476C164.299 296.628 165.519 295.056 167.081 293.963C168.726 292.943 170.592 292.406 172.491 292.406C174.39 292.406 176.256 292.943 177.901 293.963C179.47 295.054 180.698 296.627 181.427 298.476C182.294 300.763 182.705 303.219 182.634 305.687C182.691 308.173 182.272 310.645 181.402 312.95C180.692 314.831 179.472 316.439 177.901 317.567C176.283 318.657 174.4 319.208 172.491 319.149ZM172.491 313.962C173.124 313.951 173.742 313.752 174.275 313.385C174.808 313.019 175.236 312.5 175.51 311.886C176.415 309.935 176.815 307.758 176.669 305.583C176.708 304.024 176.529 302.468 176.138 300.966C175.871 299.982 175.372 299.088 174.689 298.372C174.085 297.793 173.301 297.479 172.491 297.49C171.864 297.499 171.251 297.692 170.718 298.049C170.186 298.405 169.755 298.912 169.472 299.514C168.58 301.433 168.179 303.573 168.313 305.713C168.28 307.296 168.45 308.876 168.82 310.408C169.076 311.456 169.584 312.413 170.293 313.183C170.899 313.76 171.682 314.074 172.491 314.065V313.962Z" fill="#8E8E8E"/>
<path d="M186.957 298.943V297.62C186.955 296.593 187.178 295.58 187.609 294.663C188.038 293.771 188.691 293.025 189.493 292.51C190.383 291.944 191.405 291.665 192.439 291.706C193.495 291.665 194.541 291.944 195.458 292.51C196.258 293.02 196.903 293.768 197.317 294.663C197.751 295.578 197.967 296.594 197.945 297.62V298.969C197.961 299.994 197.746 301.009 197.317 301.926C196.88 302.805 196.229 303.54 195.434 304.053C194.519 304.598 193.484 304.867 192.439 304.831C191.39 304.871 190.352 304.592 189.444 304.027C188.657 303.52 188.02 302.782 187.609 301.9C187.169 300.987 186.946 299.971 186.957 298.943ZM188.189 318.527L204.683 292.744H207.895L191.401 318.527H188.189ZM190.604 297.594V298.943C190.617 299.487 190.75 300.02 190.99 300.499C191.121 300.747 191.316 300.948 191.553 301.077C191.789 301.206 192.055 301.258 192.318 301.226C192.589 301.261 192.863 301.212 193.107 301.083C193.352 300.954 193.556 300.751 193.695 300.499C193.942 300.025 194.059 299.486 194.033 298.943V297.62C194.052 297.064 193.945 296.512 193.719 296.012C193.582 295.751 193.375 295.54 193.126 295.406C192.876 295.272 192.595 295.221 192.318 295.26C192.049 295.229 191.778 295.287 191.541 295.426C191.304 295.565 191.111 295.778 190.99 296.038C190.8 296.54 190.709 297.078 190.724 297.62L190.604 297.594ZM199.298 313.702V312.327C199.285 311.31 199.5 310.305 199.925 309.396C200.352 308.511 200.995 307.767 201.785 307.243C202.683 306.672 203.712 306.385 204.755 306.413C205.815 306.378 206.861 306.666 207.774 307.243C208.581 307.745 209.228 308.495 209.634 309.396C210.065 310.303 210.281 311.31 210.262 312.327V313.702C210.275 314.719 210.059 315.725 209.634 316.633C209.22 317.528 208.574 318.276 207.774 318.786C206.86 319.361 205.814 319.649 204.755 319.616C203.704 319.648 202.666 319.36 201.761 318.786C200.977 318.262 200.343 317.518 199.925 316.633C199.542 315.714 199.368 314.709 199.418 313.702H199.298ZM203.017 312.327V313.702C203.04 314.236 203.172 314.759 203.403 315.233C203.532 315.489 203.73 315.698 203.971 315.833C204.213 315.967 204.486 316.02 204.755 315.985C205.026 316.021 205.3 315.971 205.545 315.842C205.789 315.713 205.993 315.51 206.132 315.258C206.377 314.783 206.494 314.245 206.47 313.702V312.327C206.5 311.779 206.391 311.233 206.156 310.745C205.997 310.514 205.789 310.327 205.55 310.198C205.311 310.069 205.047 310.001 204.78 310.001C204.512 310.001 204.248 310.069 204.009 310.198C203.77 310.327 203.563 310.514 203.403 310.745C203.185 311.24 203.07 311.78 203.065 312.327H203.017Z" fill="#8E8E8E"/>
<path opacity="0.24" d="M220.743 342.313H131.001V397.096H220.743V342.313Z" fill="white"/>
<path opacity="0.08" d="M601.54 502.252L663.074 466.612C665.433 458.123 667.177 449.451 668.291 440.673L618.952 478.207L608.592 485.988C608.592 485.988 602.699 499.399 601.54 502.252Z" fill="black"/>
</svg>
